PathFileType	4	(X/Y/Z)	../Python\running\Running07\task.trc
DataRate	CameraRate	NumFrames	NumMarkers	Units	OrigDataRate	OrigDataStartFrame	OrigNumFrames
200.000000	200.000000	6	30	mm	200.000000	0	177
Frame#	Time	C7			RBAK			CLAV			STRN			RASI			LASI			PE01			RTH1			RTH2			RTH3			RTB2			RHEE			RD5M			RTOE			LTH2			LTH3			LTB2			LTB3			LHEE			LTOE			LD5M			LPSI			RPSI			RTB1			RTB3			T10			PE03			PE02			LTH1			LTB1			
		X1	Y1	Z1	X2	Y2	Z2	X3	Y3	Z3	X4	Y4	Z4	X5	Y5	Z5	X6	Y6	Z6	X7	Y7	Z7	X8	Y8	Z8	X9	Y9	Z9	X10	Y10	Z10	X11	Y11	Z11	X12	Y12	Z12	X13	Y13	Z13	X14	Y14	Z14	X15	Y15	Z15	X16	Y16	Z16	X17	Y17	Z17	X18	Y18	Z18	X19	Y19	Z19	X20	Y20	Z20	X21	Y21	Z21	X22	Y22	Z22	X23	Y23	Z23	X24	Y24	Z24	X25	Y25	Z25	X26	Y26	Z26	X27	Y27	Z27	X28	Y28	Z28	X29	Y29	Z29	X30	Y30	Z30	

1	0	-1551.754882812501	1334.887939453125	166.9633331298829	-1577.966308593751	1237.790283203125	286.4836730957032	-1434.705200195313	1233.351806640625	144.3164062500001	-1403.891357421875	1035.5380859375	135.2677612304688	-1482.913696289063	840.6701049804692	301.5080566406251	-1465.695434570313	833.0816040039067	73.57852935791018	-1643.903930664063	948.006713867188	184.5282592773438	-1643.589233398438	572.782165527344	315.6458740234376	-1653.034179687501	496.2928466796877	294.7916870117189	-1608.771850585938	538.5097656250002	302.1301879882814	-1820.659057617188	286.5839843750001	273.7894592285157	-1984.177734375001	141.0976104736329	180.5756530761719	-1889.227416992188	21.93045616149903	242.9889984130861	-1857.051513671876	22.77503967285157	190.7676696777344	-1409.8935546875	554.3685302734377	60.87907409667972	nan	nan	nan	-1428.3583984375	259.2066955566407	56.26485061645511	-1381.481201171875	276.0747375488282	62.09798812866214	-1513.898559570313	88.83223724365237	104.2576065063477	-1336.8388671875	54.30792236328128	93.59561920166018	-1369.254028320313	53.88258361816409	44.57373809814455	-1657.802368164063	912.6596069335942	140.7639617919922	-1661.689331054688	919.1706542968755	226.9537353515626	nan	nan	nan	-1813.750244140626	239.2058258056642	255.8023834228517	-1614.446899414063	1044.385009765625	183.339828491211	-1673.740600585938	896.871215820313	151.5226745605469	-1681.943603515626	895.4341430664067	201.4523773193361	-1421.55517578125	609.2399902343752	34.4260597229004	-1400.543579101563	335.242156982422	50.38292312622073	
2	0.005	-1535.374389648438	1338.70654296875	166.0988769531251	-1559.693725585938	1243.278930664063	286.584930419922	-1418.960205078125	1238.02392578125	141.9610443115235	-1387.27783203125	1040.43701171875	133.5851287841797	-1465.374267578125	842.7504272460942	301.6578674316407	-1447.700317382813	838.5661621093755	74.62368011474612	-1625.010742187501	951.5950317382817	186.5718078613282	-1631.651977539063	578.9208984375002	314.7486572265626	-1642.999511718751	502.6703796386721	293.7219848632814	-1597.663208007813	543.5148925781252	301.5032043457032	-1812.034545898438	293.7717590332032	273.334197998047	-1969.706298828126	149.1257324218751	181.0323791503907	-1887.412231445313	23.15533256530762	242.0055236816407	-1856.078002929688	22.98612022399903	190.0686798095704	-1393.992919921875	558.6441040039065	60.77520751953128	-1353.898681640625	621.394470214844	34.03328704833986	-1398.846069335938	255.6914062500001	57.0175476074219	-1353.55712890625	275.4244079589845	62.56573104858401	-1474.394287109375	83.74427795410159	106.8234558105469	-1297.440185546875	51.87808227539065	95.40483093261722	-1329.755981445313	50.61286163330081	46.45474243164064	-1639.505493164063	917.251098632813	142.4996337890626	-1643.238525390626	923.0845336914067	228.6729431152345	nan	nan	nan	-1803.960327148438	246.0358428955079	257.1353759765626	-1597.196044921876	1048.610595703125	186.1348724365235	-1655.519653320313	901.726196289063	152.8095092773438	-1663.937866210938	899.6868286132817	202.6757659912111	-1404.323974609375	614.381042480469	36.57784652709962	-1376.34765625	332.6251220703126	50.54092025756839	
3	0.01	-1518.9892578125	1342.265380859375	165.2096099853516	-1541.518676757813	1248.420776367188	286.6369628906251	-1403.181762695313	1242.373657226563	139.6884307861329	-1370.663818359375	1045.11328125	132.0212860107422	-1447.875244140625	844.7346191406255	301.7776794433595	-1429.778930664063	843.755004882813	75.63504028320315	-1606.231933593751	955.1105346679692	188.4923400878907	-1619.392456054688	584.6958618164065	313.940643310547	-1632.450073242188	508.683532714844	292.798065185547	-1586.185058593751	548.2877197265627	301.0952148437501	-1802.845947265626	300.6013488769532	272.8775939941407	-1955.580078125001	157.0193023681641	181.4864807128907	-1884.682006835938	25.06450271606447	241.1412506103517	-1854.125366210938	23.7339210510254	189.4383239746094	-1378.374755859375	562.4960937500002	60.56207656860354	-1336.961547851563	625.624450683594	37.67451477050783	-1370.07177734375	252.5693664550782	57.77145767211917	-1326.377197265625	274.995574951172	62.99140930175784	-1435.781616210938	79.42713165283206	109.1580963134766	-1258.75244140625	50.41131591796878	97.46556091308599	-1290.923828125	48.07186126708987	48.55986022949222	-1621.293334960938	921.6535644531255	144.1456451416016	-1624.824462890626	926.897338867188	230.3056793212892	-1742.455322265626	311.0953063964845	266.8630676269532	-1793.848022460938	252.5423431396486	258.2840270996095	-1580.030029296876	1052.601318359375	188.691390991211	-1637.329467773438	906.3724975585942	154.0329284667969	-1645.938476562501	903.7775878906255	203.841278076172	-1387.424926757813	619.028259277344	38.442928314209	-1352.6796875	330.2138061523439	50.74892425537112	
4	0.015	-1502.599609375	1345.564819335938	164.2955474853516	-1523.441040039063	1253.215942382813	286.6398010253907	-1387.369873046875	1246.4013671875	137.4985961914063	-1354.04931640625	1049.56689453125	130.5762481689454	-1430.416748046875	846.6231079101567	301.8677368164064	-1411.931518554688	848.6477661132817	76.61232757568362	-1587.568237304688	958.552368164063	190.2894592285157	-1606.807617187501	590.1038818359377	313.2211914062501	-1621.380004882813	514.3270263671877	292.019012451172	-1574.332519531251	552.8247070312502	300.904754638672	-1793.092651367188	307.0723266601564	272.4200439453126	-1941.801147460938	164.7789764404297	181.9307403564454	-1881.040649414063	27.65590476989748	240.3978118896486	-1851.197387695313	25.01637458801271	188.878158569336	-1363.035766601563	565.9254150390627	60.2431335449219	-1320.413818359375	629.3386840820315	40.9214324951172	-1342.037719726563	249.8401489257814	58.52647399902347	-1299.942138671875	274.787567138672	63.37582015991214	-1398.0693359375	75.87754058837893	111.2603912353516	-1220.78662109375	49.90674972534183	99.77491760253912	-1252.768310546875	46.26118850708009	50.88630294799808	-1603.166259765626	925.8661499023442	145.7016754150391	-1606.447509765626	930.6079711914067	231.8516387939454	-1732.764648437501	318.0787658691407	267.5089721679689	-1783.412719726563	258.7247314453126	259.2468872070314	-1562.948730468751	1056.356811523438	191.0094451904297	-1619.170532226563	910.8093872070317	155.1927337646485	-1627.945800781251	907.705688476563	204.9487304687501	-1370.85595703125	623.1812133789065	40.02012252807619	-1329.539916992188	328.0090332031251	51.00703048706058	
5	0.02	-1486.205444335938	1348.604858398438	163.3567810058594	-1505.461303710938	1257.66455078125	286.5935974121095	-1371.524536132813	1250.107299804688	135.3916778564454	-1337.434692382813	1053.797119140625	129.2500457763672	-1412.998291015625	848.4166870117192	301.9285278320314	-1394.159057617188	853.2438964843755	77.55478668212893	-1569.021606445313	961.9181518554692	191.9620819091797	-1593.888916015626	595.1365966796877	312.5883789062501	-1609.774169921876	519.5874633789065	291.3823852539064	-1562.092041015626	557.116638183594	300.927215576172	-1782.773681640626	313.1838989257814	271.9625854492189	-1928.371459960938	172.4063568115235	182.3456420898438	-1876.499633789063	30.92342758178712	239.7784423828126	-1847.305419921876	26.82762527465822	188.3925933837891	-1347.967895507813	568.9345703125002	59.82728576660159	-1304.255126953125	632.5339965820315	43.7688674926758	-1314.749145507813	247.5023651123048	59.28233337402347	-1274.253173828125	274.798309326172	63.7211608886719	-1361.280639648438	73.08632659912112	113.1282653808594	-1183.572631835938	50.35866928100589	102.3241119384766	-1215.319458007813	45.1830291748047	53.42587661743167	-1585.125366210938	929.8869018554692	147.1667175292969	-1588.109252929688	934.2131958007817	233.3101348876954	-1722.459350585938	324.4565429687501	268.0166320800782	-1772.652099609376	264.5812988281251	260.0203247070314	-1545.952392578126	1059.876953125	193.0892181396486	-1601.044677734376	915.0346069335942	156.2884063720704	-1609.961547851563	911.4691772460942	205.9976196289064	-1354.611450195313	626.8392333984377	41.30716705322267	-1306.929443359375	326.0127563476564	51.3153991699219	
6	0.025	-1469.807006835938	1351.385864257813	162.3934631347657	-1487.579956054688	1261.76708984375	286.4985961914064	-1355.64599609375	1253.491943359375	133.3679351806641	-1320.82080078125	1057.802734375	128.0426635742188	-1395.619262695313	850.1172485351567	301.9612731933595	-1376.463012695313	857.5422363281255	78.46094512939456	-1550.595581054688	965.2029418945317	193.5081481933595	-1580.619995117188	599.7789306640627	312.0388183593751	-1597.606933593751	524.4418945312502	290.8834838867189	-1549.439331054688	561.1463623046877	301.152801513672	-1771.886474609376	318.9346923828126	271.5069274902345	-1915.287963867188	179.9040222167969	182.6949462890626	-1871.083251953126	34.85374069213869	239.2879791259767	-1842.472778320313	29.15669441223146	187.9905090332032	-1333.15625	571.5286865234377	59.33062744140628	-1288.477416992188	635.2041015625002	46.20119476318361	-1288.215209960938	245.5523223876954	60.038444519043	-1249.312133789063	275.0228576660157	64.03172302246097	-1325.459716796875	71.034782409668	114.759994506836	-1147.16845703125	51.74825668334964	105.0947341918946	-1178.63623046875	44.8358612060547	56.16173171997073	-1567.172729492188	933.7116699218755	148.5388336181641	-1569.812377929688	937.7064819335942	234.6796264648439	-1711.538940429688	330.2294006347657	268.3845520019532	-1761.560546875001	270.1090698242189	260.5980224609376	-1529.041015625	1063.161254882813	194.9312286376954	-1582.954833984376	919.043823242188	157.3188629150391	-1591.988647460938	915.0639648437505	206.9869689941407	-1338.679809570313	630.0020141601565	42.30171966552736	-1284.848876953125	324.227996826172	51.67411422729495	
